<svg xmlns="http://www.w3.org/2000/svg" width="248.747" height="163.632" viewBox="0 0 248.747 163.632"><g transform="translate(-0.1 0.006)" opacity="0.25"><path d="M9.907,73.43c0-14.279.207-28.558.207-42.63h32.7v87.123H9.7V92.262C9.907,85.847,9.907,79.639,9.907,73.43Z" transform="translate(10.267 32.945)" fill="#33abe0"/><path d="M127.2,92.262c-.414,8.278-.828,16.349-1.242,25.454H94.5V30.8h32.076c.207,14.279.414,28.351.621,42.63C127.2,79.639,127.2,85.847,127.2,92.262Z" transform="translate(100.955 32.945)" fill="#33abe0"/><path d="M46.9,80.09c3.932-9.726,6.208-19.66,11.589-27.524,8.071-12,21.729-11.8,31.455-.828,12.417,14.072,12.417,43.251-.207,57.324-9.519,10.761-23.592,10.968-31.456-1.242C53.108,99.956,50.832,90.023,46.9,80.09ZM93.669,66.432H55.178c1.242,10.554,1.449,20.487,3.725,29.8,1.656,7.657,7.243,15.314,15.521,13.451,5.794-1.242,12.831-7.45,14.9-13.037C92.635,87.747,92.221,77.606,93.669,66.432Zm-32.283-7.45H87.461C77.735,46.565,70.492,46.565,61.386,58.982Z" transform="translate(50.05 46.567)" fill="#131313"/><path d="M53.285,35.452h-32.7c-4.76-.207-9.726.207-14.279-.621C4.032,34.417,2.169,32.348.1,31.106c1.862-1.449,3.725-4.346,5.587-4.346q28.869-.621,57.737,0c1.862,0,3.725,2.9,5.587,4.346-2.069,1.242-3.932,3.1-6.208,3.725C59.493,35.452,56.389,35.245,53.285,35.452Z" transform="translate(0 28.293)" fill="#131313"/><path d="M134.6,35.575H102.521c-3.1-.207-6.415.207-9.106-.621-2.483-.621-4.346-2.9-6.415-4.553,2.483-1.242,4.967-3.518,7.45-3.725,15.107-.414,30.214-.207,45.321-.207,3.518,0,7.036-.414,10.347.207,2.069.414,3.932,2.69,5.794,4.139-1.863,1.449-3.725,3.725-5.794,3.932C144.944,35.575,139.771,35.368,134.6,35.575Z" transform="translate(92.934 28.17)" fill="#131313"/><path d="M18.036,51.4V70.232c-5.587-2.9-15.728-5.794-15.935-8.9C1.895,52.228,11.621,53.056,18.036,51.4Z" transform="translate(2.137 54.976)" fill="#d86183"/><path d="M110.3,70.339V51.3a1.551,1.551,0,0,1,1.035.207c5.381,3.1,15.521,6.622,15.521,9.519C126.235,69.511,117.129,69.3,110.3,70.339Z" transform="translate(117.852 54.869)" fill="#d86183"/><path d="M33.893,3.8C19.614,3.387,8.853,7.94,4.507,23.46c-4.967-7.45-.207-12,3.311-16.349C14.233-.338,24.58-1.994,33.893,3.8Z" transform="translate(2.422 0.345)" fill="#131313"/><path d="M134.6,22.15C123.215,8.905,123.215,8.905,101.9,3.111c8.9-5.174,16.142-3.1,22.971.414C131.907,7.457,135.218,13.872,134.6,22.15Z" transform="translate(108.869 0)" fill="#131313"/><path d="M89.392,54.6c-1.449,11.175-1.035,21.315-4.346,30.214-2.069,5.587-9.106,11.8-14.9,13.037C61.868,99.714,56.281,92.057,54.625,84.4c-2.069-9.312-2.483-19.246-3.725-29.8Z" transform="translate(54.328 58.398)" fill="#d86183"/><path d="M53.9,55.812c9.106-12.417,16.349-12.417,26.075,0Z" transform="translate(57.536 49.736)" fill="#edeef7"/></g></svg>